<svg
        data-v-7f05fca1=""
        width="43"
        height="30"
        fill="none"
        xmlns="http://www.w3.org/2000/svg"
        class="mr-2"
        data-v-666cfc44=""
      >
        <rect
          x="1"
          y=".5"
          width="41.5"
          height="29"
          rx="3.5"
          fill="#fff"
          stroke="#B2BCCA"
        ></rect>
        <g clip-path="url(#clip0_1006_11883)">
          <path
            d="M10.47 22.002v-5.627h5.972l.64.834.663-.834H39.41v5.239s-.565.38-1.22.388h-12l-.723-.888v.888h-2.365v-1.516s-.324.212-1.022.212h-.807v1.304h-3.582l-.64-.852-.648.852H10.47zM3.5 12.132l1.346-3.134h2.33l.763 1.754V8.998h2.894l.454 1.269.439-1.269h12.992v.636s.684-.636 1.804-.636l4.216.015.752 1.732V8.998h2.423l.666.996v-.996h2.444v5.63H34.58l-.637-.998v.999h-3.557l-.357-.888h-.957l-.353.888h-2.412c-.965 0-1.584-.625-1.584-.625v.625h-3.643l-.724-.888v.888H6.83l-.356-.888H5.52l-.357.888H3.5v-2.497z"
            fill="#fff"
          ></path>
          <path
            d="M5.322 9.695L3.507 13.91h1.181l.335-.844H6.97l.334.844h1.21L6.7 9.695H5.32zm.673.978l.594 1.473H5.4l.594-1.473zM8.637 13.907V9.692l1.681.007.976 2.716.954-2.723h1.667v4.215H12.86v-3.105l-1.12 3.105h-.925l-1.123-3.105v3.105H8.637zM14.638 13.907V9.692h3.445v.941h-2.376v.723h2.319v.887h-2.322v.747h2.376v.917h-3.442zM18.692 9.695v4.215h1.055v-1.498h.442l1.268 1.498h1.288l-1.39-1.552a1.284 1.284 0 001.16-1.294c0-.887-.698-1.365-1.476-1.365l-2.347-.004zm1.055.942h1.206c.288 0 .5.226.5.442 0 .28-.273.442-.486.442h-1.22v-.884zM24.023 13.907h-1.076V9.692h1.076v4.215zM26.58 13.906h-.234c-1.127 0-1.807-.883-1.807-2.087 0-1.233.676-2.124 2.095-2.124H27.8v1h-1.206c-.576 0-.986.448-.986 1.135 0 .815.468 1.157 1.137 1.157h.278l-.443.92zM28.876 9.695l-1.814 4.212h1.18l.336-.845h1.947l.335.845h1.206l-1.814-4.215-1.376.003zm.67.978l.594 1.473h-1.188l.594-1.473zM32.188 13.907V9.692h1.343l1.714 2.648V9.692H36.3v4.215H35l-1.757-2.717v2.717h-1.055zM11.193 21.28v-4.215h3.446v.941h-2.376v.723h2.322v.887h-2.322v.747h2.376v.917h-3.446zM28.066 21.28v-4.215h3.446v.941h-2.376v.723h2.31v.887h-2.31v.747h2.376v.917h-3.446zM14.772 21.28l1.677-2.08-1.717-2.135h1.329l1.022 1.319 1.026-1.32h1.278l-1.696 2.107 1.681 2.105h-1.328l-.994-1.297-.968 1.297-1.31.004zM19.498 17.069v4.214h1.084v-1.33h1.113c.94 0 1.652-.499 1.652-1.465 0-.801-.558-1.416-1.516-1.416H19.5v-.003zm1.084.952h1.17c.303 0 .522.187.522.485 0 .28-.216.485-.526.485h-1.166v-.97zM23.8 17.065v4.215h1.055V19.78h.443l1.267 1.499h1.289l-1.39-1.553a1.284 1.284 0 001.16-1.293c0-.887-.699-1.365-1.476-1.365l-2.348-.004zm1.059.945h1.206c.288 0 .5.226.5.442 0 .28-.274.442-.486.442h-1.22v-.884zM32.001 21.28v-.917h2.114c.313 0 .446-.168.446-.352 0-.176-.133-.355-.446-.355h-.954c-.828 0-1.293-.503-1.293-1.262 0-.675.425-1.325 1.656-1.325h2.056l-.443.948h-1.778c-.339 0-.443.18-.443.349 0 .176.13.366.389.366h1c.926 0 1.325.525 1.325 1.211 0 .737-.446 1.34-1.375 1.34h-2.254v-.003zM35.875 21.28v-.917h2.113c.313 0 .446-.168.446-.352 0-.176-.133-.355-.446-.355h-.954c-.828 0-1.292-.503-1.292-1.262 0-.675.424-1.325 1.656-1.325h2.055l-.443.948h-1.778c-.338 0-.443.18-.443.349 0 .176.13.366.389.366h1c.926 0 1.326.525 1.326 1.211 0 .737-.447 1.34-1.376 1.34h-2.253v-.003z"
            fill="#016FD0"
          ></path>
        </g>
        <defs>
          <clipPath id="clip0_1006_11883">
            <path
              fill="#fff"
              transform="translate(3.5 9)"
              d="M0 0h36v13H0z"
            ></path>
          </clipPath>
        </defs>
      </svg>